<?xml version="1.0" encoding="utf-8"?>
<!-- Generator: Adobe Illustrator 24.2.3, SVG Export Plug-In . SVG Version: 6.00 Build 0)  -->
<svg version="1.1" id="Layer_1" xmlns="http://www.w3.org/2000/svg" xmlns:xlink="http://www.w3.org/1999/xlink" x="0px" y="0px"
	 viewBox="0 0 357.76 310.86" style="enable-background:new 0 0 357.76 310.86;" xml:space="preserve">
<style type="text/css">
	.st0{fill:#FFFFFF;}
	.st1{fill:#FDB517;}
	.st2{fill:#203731;}
</style>
<g>
	<g>
		<rect x="204.07" y="84.98" class="st1" width="98.51" height="37.11"/>
		<path class="st1" d="M302.57,230.89V268H146.79c-50.54,0-91.51-40.97-91.51-91.51c0-50.54,40.97-91.51,91.51-91.51h7.09v37.11
			h-7.09c-30.04,0-54.39,24.35-54.39,54.4c0,30.03,24.35,54.39,54.39,54.39h57.27l61.49,0.01H302.57z"/>
	</g>
	<g>
		<rect x="160.42" y="273.74" class="st2" width="37.11" height="37.12"/>
		<polygon class="st2" points="302.57,0 302.57,74.23 265.45,74.23 265.45,37.12 197.43,37.12 197.43,225.14 160.32,225.14 
			160.32,37.12 92.3,37.12 92.3,74.23 55.19,74.23 55.19,0 		"/>
	</g>
</g>
</svg>
